<?xml version="1.0" encoding="UTF-8" standalone="no"?>
<!DOCTYPE svg PUBLIC "-//W3C//DTD SVG 1.1//EN" "http://www.w3.org/Graphics/SVG/1.1/DTD/svg11.dtd">
<svg xmlns="http://www.w3.org/2000/svg" version="1.1" viewBox="0 0 359 351">
<path fill="#ffffff" d="
  M 174.31 0.00
  L 187.06 0.00
  C 204.27 3.43 216.45 15.70 219.02 32.91
  C 223.50 62.88 195.71 85.91 167.04 76.00
  C 129.16 62.90 134.41 6.35 174.31 0.00
  Z"
/>
<path fill="#ffffff" d="
  M 44.37 102.45
  C 38.09 105.11 51.50 108.09 52.78 108.30
  Q 67.48 110.74 76.99 113.02
  C 88.99 115.90 96.19 130.02 83.18 137.96
  C 75.29 142.77 64.85 143.45 55.38 143.87
  C 44.06 144.38 14.31 144.62 17.10 125.59
  A 0.59 0.59 -85.4 0 1 17.68 125.09
  L 39.20 125.04
  A 0.68 0.68 88.2 0 1 39.88 125.68
  C 40.40 134.38 60.61 134.17 64.53 128.93
  A 0.70 0.67 -45.6 0 0 64.54 128.11
  C 62.33 125.19 55.44 124.24 52.49 123.77
  C 40.11 121.81 19.17 119.69 17.78 108.25
  C 15.27 87.66 50.27 89.25 62.06 89.88
  C 72.08 90.42 87.32 92.37 87.09 105.78
  A 1.33 1.32 -89.3 0 1 85.76 107.09
  L 66.11 106.93
  A 0.85 0.80 76.3 0 1 65.40 106.47
  C 61.62 99.27 50.43 99.88 44.37 102.45
  Z"
/>
<path fill="#ffffff" d="
  M 122.03 122.56
  L 122.22 130.50
  A 0.55 0.51 -0.5 0 0 122.77 131.00
  L 161.34 131.05
  A 0.53 0.51 -0.6 0 1 161.87 131.55
  L 161.95 142.35
  A 0.68 0.65 0.0 0 1 161.27 143.00
  L 98.31 143.00
  A 0.31 0.30 90.0 0 1 98.01 142.69
  L 98.01 90.32
  A 0.30 0.30 0.0 0 1 98.31 90.02
  L 159.34 90.04
  A 0.53 0.50 0.0 0 1 159.87 90.54
  L 159.87 102.44
  A 0.53 0.50 -0.6 0 1 159.35 102.94
  L 122.57 103.00
  A 0.53 0.49 -0.5 0 0 122.04 103.50
  L 122.12 109.46
  A 0.54 0.49 0.0 0 0 122.66 109.95
  L 157.23 110.01
  A 0.56 0.55 -2.8 0 1 157.79 110.50
  Q 158.35 116.06 157.78 121.50
  A 0.55 0.55 2.9 0 1 157.23 121.99
  L 122.57 122.06
  A 0.54 0.49 -0.5 0 0 122.03 122.56
  Z"
/>
<path fill="#ffffff" d="
  M 319.59 135.31
  A 2.47 2.43 -13.5 0 0 317.41 134.00
  L 284.04 134.01
  A 0.87 0.86 -75.0 0 0 283.29 134.45
  L 278.74 142.43
  A 1.12 1.11 -75.3 0 1 277.77 143.00
  L 223.27 143.00
  A 1.10 1.10 69.4 0 1 222.44 142.62
  L 195.64 111.84
  Q 194.28 110.29 194.02 112.33
  Q 193.62 115.38 193.98 119.74
  Q 194.29 123.41 193.87 142.37
  A 0.52 0.51 0.6 0 1 193.35 142.87
  L 171.68 142.95
  A 0.69 0.68 90.0 0 1 171.00 142.26
  L 171.01 90.73
  A 0.73 0.72 -90.0 0 1 171.73 90.00
  L 199.29 90.02
  A 1.95 1.91 68.5 0 1 200.72 90.66
  L 230.55 123.47
  Q 230.98 123.95 230.98 123.30
  L 231.00 90.73
  A 0.73 0.73 89.4 0 1 231.73 90.00
  L 253.50 90.00
  A 0.50 0.50 0.0 0 1 254.00 90.50
  L 254.01 141.26
  Q 254.01 142.26 254.58 141.44
  L 289.48 90.94
  A 2.14 2.14 -72.6 0 1 291.24 90.02
  L 315.26 90.00
  A 1.27 1.25 -16.5 0 1 316.31 90.56
  L 350.06 141.85
  Q 350.80 142.97 349.45 142.97
  L 324.04 142.99
  A 0.83 0.82 76.3 0 1 323.31 142.54
  L 319.59 135.31
  Z
  M 292.22 120.01
  A 0.64 0.64 -73.9 0 0 292.76 120.98
  L 310.40 121.02
  A 0.64 0.64 -15.4 0 0 310.95 120.05
  L 302.16 105.44
  A 0.64 0.64 45.2 0 0 301.06 105.44
  L 292.22 120.01
  Z"
/>
<path fill="#ffffff" d="
  M 0.00 182.62
  L 0.00 155.24
  L 163.61 155.00
  A 1.19 1.18 -81.0 0 1 164.73 156.55
  Q 164.52 157.20 163.67 158.68
  Q 116.18 241.54 68.78 324.04
  A 0.60 0.60 -55.6 0 1 67.88 324.21
  Q 56.81 315.06 47.36 304.57
  A 0.71 0.70 39.0 0 1 47.27 303.75
  Q 77.46 251.24 107.70 198.82
  Q 110.51 193.94 110.68 191.66
  C 111.16 185.40 105.15 182.86 99.25 182.91
  Q 49.62 183.28 0.00 182.62
  Z"
/>
<path fill="#ffffff" d="
  M 359.00 155.17
  L 359.00 183.06
  L 256.88 183.03
  Q 254.05 183.03 251.75 184.71
  C 245.15 189.51 249.27 195.22 252.91 201.55
  Q 282.27 252.56 311.57 303.42
  A 1.43 1.42 -38.4 0 1 311.37 305.10
  Q 301.79 315.35 291.59 323.83
  A 1.11 1.10 -34.7 0 1 289.93 323.53
  Q 244.97 245.26 200.19 167.31
  Q 196.89 161.55 194.15 156.39
  A 0.95 0.94 75.9 0 1 194.98 155.00
  L 359.00 155.17
  Z"
/>
<path fill="#ffffff" d="
  M 248.19 351.00
  L 247.44 351.00
  Q 217.93 301.72 188.57 252.31
  C 183.30 243.44 176.44 244.17 171.45 252.63
  Q 142.39 301.92 112.94 351.00
  L 112.44 351.00
  L 88.35 338.79
  A 0.65 0.63 28.4 0 1 88.07 337.89
  L 178.82 183.62
  A 0.82 0.81 44.6 0 1 180.22 183.61
  L 272.63 336.48
  A 1.44 1.43 62.0 0 1 272.01 338.53
  Q 259.78 344.19 248.19 351.00
  Z"
/>
</svg>
